Coordinates
version=1
nRows=8
nColumns=63
inDegrees=yes

Units are S.I. units (second, meters, Newtons, ...)
If the header above contains a line with 'inDegrees', this indicates whether rotational values are in degrees (yes) or radians (no).

endheader
time	pelvis_tilt	pelvis_list	pelvis_rotation	pelvis_tx	pelvis_ty	pelvis_tz	hip_flexion_r	hip_adduction_r	hip_rotation_r	knee_angle_r	knee_angle_r_beta	ankle_angle_r	subtalar_angle_r	mtp_angle_r	hip_flexion_l	hip_adduction_l	hip_rotation_l	knee_angle_l	knee_angle_l_beta	ankle_angle_l	subtalar_angle_l	mtp_angle_l	L5_S1_Flex_Ext	L5_S1_Lat_Bending	L5_S1_axial_rotation	L4_L5_Flex_Ext	L4_L5_Lat_Bending	L4_L5_axial_rotation	L3_L4_Flex_Ext	L3_L4_Lat_Bending	L3_L4_axial_rotation	L2_L3_Flex_Ext	L2_L3_Lat_Bending	L2_L3_axial_rotation	L1_L2_Flex_Ext	L1_L2_Lat_Bending	L1_L2_axial_rotation	L1_T12_Flex_Ext	L1_T12_Lat_Bending	L1_T12_axial_rotation	Abs_r3	Abs_r2	Abs_r1	Abs_t1	Abs_t2	neck_flexion	neck_bending	neck_rotation	arm_flex_r	arm_add_r	arm_rot_r	elbow_flex_r	pro_sup_r	wrist_flex_r	wrist_dev_r	arm_flex_l	arm_add_l	arm_rot_l	elbow_flex_l	pro_sup_l	wrist_flex_l	wrist_dev_l
      0.03333333	     -2.89541521	     -2.20597644	      2.49373456	     -2.49260170	      0.91228231	      0.38760758	      8.26000840	     -1.80883199	    -23.26802588	     15.22996047	      0.26581296	     10.60431738	     -7.65913729	      0.00000000	      9.73637452	     -3.58667465	     -0.72278575	     14.40989419	      0.25150010	     11.91344045	     -9.77837778	      0.00000000	      0.01924157	      0.03798712	     -1.18593374	      0.03573353	      0.05052287	     -1.26005460	      0.03161198	      0.09236189	     -1.26005460	      0.02199120	      0.09236189	     -1.03769202	      0.01786773	      0.07746334	     -0.96357116	      0.01099464	      0.05884205	     -0.88945031	      0.13744064	      0.42971793	     -6.59580769	      0.00000000	      0.00000000	      0.00000000	      0.00000000	      0.00000001	      0.26140526	     -4.02816483	      1.03268199	     28.17815860	     59.28567446	      0.00000000	      4.74219799	     -3.04998329	    -12.81929628	     24.48852235	     31.96465268	     64.55054606	      0.00000000	      4.74219799
      0.06666667	     -2.26734313	     -3.99414254	      2.08712081	     -2.49496647	      0.91475869	      0.38136672	      6.89051783	      0.39166716	    -18.22828170	     13.86394743	      0.24197153	      8.21776534	     -9.54289712	      0.00000000	      9.51599827	     -5.18523928	     -1.28279593	     15.08376495	      0.26326136	     12.23487261	     -9.58108291	      0.00000000	      0.01562627	      0.19638129	     -0.52013215	      0.02901955	      0.26118711	     -0.55264041	      0.02567240	      0.47748146	     -0.55264041	      0.01785927	      0.47748146	     -0.45511563	      0.01451056	      0.40046072	     -0.42260737	      0.00892885	      0.30419461	     -0.39009911	      0.11161689	      2.22150438	     -2.89281897	      0.00000000	      0.00000000	      0.00000000	      0.00000000	      0.00000001	      1.00664498	     -8.93950357	     16.11483872	     26.57404314	     62.26173417	      0.00000000	      4.77907245	      0.93240531	    -11.12023089	     30.25290677	     27.75907264	     66.19717593	      0.00000000	      4.77907245
      0.10000000	     -1.81246364	     -5.40747423	      1.65805328	     -2.49712924	      0.91633220	      0.37614772	      5.95825966	      1.88930542	    -14.95856866	     13.18422820	      0.23010819	      6.87292861	     -9.85858472	      0.00000000	      9.53101830	     -6.40398553	     -1.74300115	     15.89939896	      0.27749686	     12.58835125	     -9.85305301	      0.00000000	      0.01247053	      0.32411843	     -0.02458112	      0.02315902	      0.43107751	     -0.02611744	      0.02048784	      0.78806156	     -0.02611744	      0.01425257	      0.78806156	     -0.02150848	      0.01158014	      0.66094231	     -0.01997216	      0.00712566	      0.50205945	     -0.01843584	      0.08907576	      3.66649253	     -0.13671284	      0.00000000	      0.00000000	      0.00000000	      0.00000000	      0.00000001	      2.06051302	    -12.99771386	     30.41367749	     26.46677390	     64.47705584	      0.00000000	      4.81258770	      3.74157446	     -9.49557149	     34.30357331	     24.49886178	     67.54126622	      0.00000000	      4.81258770
      0.13333333	     -1.57308081	     -6.33219861	      1.33622174	     -2.49861760	      0.91709124	      0.37221394	      5.41367727	      2.73854706	    -13.23063722	     12.83337017	      0.22398456	      6.32840689	     -9.28065080	      0.00000000	      9.73871746	     -7.09589431	     -1.87909556	     16.66664752	      0.29088787	     12.78593400	    -10.77934176	      0.00000000	      0.00855030	      0.40737626	      0.27805890	      0.01587876	      0.54181043	      0.29543758	      0.01404729	      0.99049465	      0.29543758	      0.00977214	      0.99049465	      0.24330154	      0.00793981	      0.83072168	      0.22592285	      0.00488564	      0.63102583	      0.20854417	      0.06107394	      4.60832177	      1.54648017	      0.00000000	      0.00000000	      0.00000000	      0.00000000	      0.00000001	      3.03555605	    -15.65064930	     40.31431993	     27.04678141	     65.25331801	      0.00000000	      4.84013733	      5.41847921	     -8.41857959	     36.83972511	     22.49348231	     68.44078228	      0.00000000	      4.84013733
      0.16666667	     -1.50190718	     -6.86889817	      1.15025906	     -2.49918659	      0.91730008	      0.36919385	      5.01760856	      3.20998358	    -12.25818126	     12.33091797	      0.21521512	      5.91152675	     -8.96042466	      0.00000000	     10.04228316	     -7.39256027	     -1.78242141	     17.31449381	      0.30219493	     12.92902994	    -11.88798453	      0.00000000	      0.00648824	      0.45456503	      0.42956466	      0.01204931	      0.60457149	      0.45641245	      0.01065953	      1.10522942	      0.45641245	      0.00741541	      1.10522942	      0.37586908	      0.00602498	      0.92694901	      0.34902128	      0.00370738	      0.70412123	      0.32217349	      0.04634484	      5.14213055	      2.38910976	      0.00000000	      0.00000000	      0.00000000	      0.00000000	      0.00000001	      3.72703711	    -17.10297454	     45.96377595	     27.48115136	     64.95160831	      0.00000000	      4.86290974	      6.24723903	     -7.93387968	     38.43017392	     21.56054455	     68.94185057	      0.00000000	      4.86290974
      0.20000000	     -1.52006662	     -7.09341874	      1.03257814	     -2.49880087	      0.91728179	      0.36658674	      4.50705551	      3.40914121	    -11.77061293	     11.34493384	      0.19800645	      5.46664670	     -8.60691979	      0.00000000	     10.25197397	     -7.43546646	     -1.95791570	     17.71517186	      0.30918808	     13.21885461	    -12.30120751	      0.00000000	      0.00308437	      0.47073010	      0.49841484	      0.00572798	      0.62607103	      0.52956577	      0.00506731	      1.14453316	      0.52956577	      0.00352512	      1.14453316	      0.43611298	      0.00286414	      0.95991281	      0.40496206	      0.00176241	      0.72916092	      0.37381113	      0.02203132	      5.32499300	      2.77203381	      0.00000000	      0.00000000	      0.00000000	      0.00000000	      0.00000001	      3.69933834	    -17.51865531	     46.25779132	     27.68479815	     64.87895924	      0.00000000	      4.86466173	      6.38958142	     -7.81772419	     38.50761139	     21.48682842	     68.96082095	      0.00000000	      4.86466173
      0.23333333	     -1.56157946	     -7.36458453	      1.21556556	     -2.49773457	      0.91713305	      0.36322675	      3.74843896	      3.82308804	    -10.58490076	      9.68625946	      0.16905712	      4.13309990	    -10.46273275	      0.00000000	     10.43210846	     -7.37047439	     -1.07785343	     17.96819570	      0.31360418	     13.21173663	    -13.55935791	      0.00000000	      0.00419500	      0.49763737	      0.46670891	      0.00779053	      0.66185770	      0.49587822	      0.00689196	      1.20995549	      0.49587822	      0.00479446	      1.20995549	      0.40837030	      0.00389547	      1.01478212	      0.37920099	      0.00239702	      0.77084028	      0.35003169	      0.02996445	      5.62937342	      2.59569497	      0.00000000	      0.00000000	      0.00000000	      0.00000000	      0.00000001	      4.16033758	    -17.92081944	     48.80253259	     27.37250638	     63.97783956	      0.00000000	      4.88298398	      6.33662418	     -7.83745608	     39.18001981	     21.51789171	     69.00755507	      0.00000000	      4.88298398
      0.26666667	     -1.59512638	     -7.45226991	      1.29876081	     -2.49588227	      0.91707378	      0.35945455	      2.91512652	      3.90959804	    -10.63857430	      7.96123260	      0.13894972	      3.26899147	    -10.44744589	      0.00000000	     10.34503655	     -7.20391283	     -0.89117044	     17.93407620	      0.31300868	     13.48427900	    -13.61616394	      0.00000000	      0.00455637	      0.50595828	      0.44824587	      0.00846164	      0.67292451	      0.47626123	      0.00748567	      1.23018695	      0.47626123	      0.00520748	      1.23018695	      0.39221513	      0.00423105	      1.03175012	      0.36419977	      0.00260351	      0.78372937	      0.33618440	      0.03254572	      5.72350121	      2.49300904	      0.00000000	      0.00000000	      0.00000000	      0.00000000	      0.00000001	      4.17351115	    -17.89324170	     48.67091295	     26.87495063	     63.81043752	      0.00000000	      4.88480218	      6.03971956	     -7.91898662	     39.23704664	     21.75656552	     68.98928444	      0.00000000	      4.88480218
